G04 #@! TF.GenerationSoftware,KiCad,Pcbnew,(7.0.0)*
G04 #@! TF.CreationDate,2023-03-27T00:55:10+02:00*
G04 #@! TF.ProjectId,LuminX WLED,4c756d69-6e58-4205-974c-45442e6b6963,1.0*
G04 #@! TF.SameCoordinates,Original*
G04 #@! TF.FileFunction,Copper,L4,Bot*
G04 #@! TF.FilePolarity,Positive*
%FSLAX46Y46*%
G04 Gerber Fmt 4.6, Leading zero omitted, Abs format (unit mm)*
G04 Created by KiCad (PCBNEW (7.0.0)) date 2023-03-27 00:55:10*
%MOMM*%
%LPD*%
G01*
G04 APERTURE LIST*
G04 Aperture macros list*
%AMRoundRect*
0 Rectangle with rounded corners*
0 $1 Rounding radius*
0 $2 $3 $4 $5 $6 $7 $8 $9 X,Y pos of 4 corners*
0 Add a 4 corners polygon primitive as box body*
4,1,4,$2,$3,$4,$5,$6,$7,$8,$9,$2,$3,0*
0 Add four circle primitives for the rounded corners*
1,1,$1+$1,$2,$3*
1,1,$1+$1,$4,$5*
1,1,$1+$1,$6,$7*
1,1,$1+$1,$8,$9*
0 Add four rect primitives between the rounded corners*
20,1,$1+$1,$2,$3,$4,$5,0*
20,1,$1+$1,$4,$5,$6,$7,0*
20,1,$1+$1,$6,$7,$8,$9,0*
20,1,$1+$1,$8,$9,$2,$3,0*%
G04 Aperture macros list end*
G04 #@! TA.AperFunction,ComponentPad*
%ADD10R,2.500000X2.500000*%
G04 #@! TD*
G04 #@! TA.AperFunction,ComponentPad*
%ADD11O,2.500000X2.500000*%
G04 #@! TD*
G04 #@! TA.AperFunction,ComponentPad*
%ADD12R,1.700000X1.700000*%
G04 #@! TD*
G04 #@! TA.AperFunction,ComponentPad*
%ADD13O,1.700000X1.700000*%
G04 #@! TD*
G04 #@! TA.AperFunction,ComponentPad*
%ADD14C,0.800000*%
G04 #@! TD*
G04 #@! TA.AperFunction,ComponentPad*
%ADD15C,6.400000*%
G04 #@! TD*
G04 #@! TA.AperFunction,ComponentPad*
%ADD16R,2.400000X2.400000*%
G04 #@! TD*
G04 #@! TA.AperFunction,ComponentPad*
%ADD17C,2.400000*%
G04 #@! TD*
G04 #@! TA.AperFunction,ComponentPad*
%ADD18O,2.100000X1.000000*%
G04 #@! TD*
G04 #@! TA.AperFunction,ComponentPad*
%ADD19O,1.600000X1.000000*%
G04 #@! TD*
G04 #@! TA.AperFunction,ComponentPad*
%ADD20C,2.780000*%
G04 #@! TD*
G04 #@! TA.AperFunction,ComponentPad*
%ADD21R,2.600000X2.600000*%
G04 #@! TD*
G04 #@! TA.AperFunction,ComponentPad*
%ADD22C,2.600000*%
G04 #@! TD*
G04 #@! TA.AperFunction,ComponentPad*
%ADD23R,3.500000X3.500000*%
G04 #@! TD*
G04 #@! TA.AperFunction,ComponentPad*
%ADD24RoundRect,0.750000X-0.750000X-1.000000X0.750000X-1.000000X0.750000X1.000000X-0.750000X1.000000X0*%
G04 #@! TD*
G04 #@! TA.AperFunction,ComponentPad*
%ADD25RoundRect,0.875000X-0.875000X-0.875000X0.875000X-0.875000X0.875000X0.875000X-0.875000X0.875000X0*%
G04 #@! TD*
G04 #@! TA.AperFunction,ComponentPad*
%ADD26R,1.600000X1.600000*%
G04 #@! TD*
G04 #@! TA.AperFunction,ComponentPad*
%ADD27C,1.600000*%
G04 #@! TD*
G04 #@! TA.AperFunction,ComponentPad*
%ADD28O,1.900000X1.200000*%
G04 #@! TD*
G04 #@! TA.AperFunction,ComponentPad*
%ADD29C,1.450000*%
G04 #@! TD*
G04 #@! TA.AperFunction,HeatsinkPad*
%ADD30C,0.600000*%
G04 #@! TD*
G04 #@! TA.AperFunction,ComponentPad*
%ADD31R,1.050000X1.500000*%
G04 #@! TD*
G04 #@! TA.AperFunction,ComponentPad*
%ADD32O,1.050000X1.500000*%
G04 #@! TD*
G04 #@! TA.AperFunction,SMDPad,CuDef*
%ADD33R,1.550000X1.300000*%
G04 #@! TD*
G04 #@! TA.AperFunction,ComponentPad*
%ADD34RoundRect,0.250200X-0.649800X-0.649800X0.649800X-0.649800X0.649800X0.649800X-0.649800X0.649800X0*%
G04 #@! TD*
G04 #@! TA.AperFunction,ComponentPad*
%ADD35C,1.800000*%
G04 #@! TD*
G04 #@! TA.AperFunction,ComponentPad*
%ADD36O,1.600000X1.600000*%
G04 #@! TD*
G04 #@! TA.AperFunction,ViaPad*
%ADD37C,0.600000*%
G04 #@! TD*
G04 #@! TA.AperFunction,ViaPad*
%ADD38C,0.800000*%
G04 #@! TD*
G04 #@! TA.AperFunction,ViaPad*
%ADD39C,2.000000*%
G04 #@! TD*
G04 #@! TA.AperFunction,ViaPad*
%ADD40C,1.000000*%
G04 #@! TD*
G04 #@! TA.AperFunction,Conductor*
%ADD41C,0.600000*%
G04 #@! TD*
G04 #@! TA.AperFunction,Conductor*
%ADD42C,0.250000*%
G04 #@! TD*
G04 #@! TA.AperFunction,Conductor*
%ADD43C,0.300000*%
G04 #@! TD*
G04 APERTURE END LIST*
D10*
X165799998Y-114349999D03*
D11*
X159799998Y-116349999D03*
X159799998Y-128549999D03*
X171799998Y-128549999D03*
X171799998Y-116349999D03*
D12*
X111974999Y-77499999D03*
D13*
X114514999Y-77499999D03*
X117054999Y-77499999D03*
D14*
X175399999Y-130350000D03*
X176102943Y-128652944D03*
X176102943Y-132047056D03*
X177799999Y-127950000D03*
D15*
X177799999Y-130350000D03*
D14*
X177799999Y-132750000D03*
X179497055Y-128652944D03*
X179497055Y-132047056D03*
X180199999Y-130350000D03*
D12*
X134499999Y-120099999D03*
D13*
X137039999Y-120099999D03*
D16*
X180999999Y-118349999D03*
D17*
X181000000Y-123350000D03*
D18*
X100129999Y-81679999D03*
D19*
X95949999Y-81679999D03*
D18*
X100129999Y-90319999D03*
D19*
X95949999Y-90319999D03*
D20*
X111799999Y-121350000D03*
X108399999Y-121350000D03*
X111799999Y-131270000D03*
X108399999Y-131270000D03*
D14*
X100399999Y-75350000D03*
X101102943Y-73652944D03*
X101102943Y-77047056D03*
X102799999Y-72950000D03*
D15*
X102799999Y-75350000D03*
D14*
X102799999Y-77750000D03*
X104497055Y-73652944D03*
X104497055Y-77047056D03*
X105199999Y-75350000D03*
D21*
X182499999Y-110849999D03*
D22*
X182500000Y-105850000D03*
X182500000Y-100850000D03*
X182500000Y-95850000D03*
D23*
X106999999Y-108542499D03*
D24*
X101000000Y-108542500D03*
D25*
X104000000Y-113242500D03*
D12*
X152499999Y-110499999D03*
D13*
X155039999Y-110499999D03*
D21*
X98249999Y-118749999D03*
D22*
X98250000Y-123750000D03*
D26*
X121499998Y-124732379D03*
D27*
X121499999Y-122232380D03*
D28*
X94762499Y-93749999D03*
D29*
X97462500Y-94750000D03*
X97462500Y-99750000D03*
D28*
X94762499Y-100749999D03*
D14*
X100399999Y-130350000D03*
X101102943Y-128652944D03*
X101102943Y-132047056D03*
X102799999Y-127950000D03*
D15*
X102799999Y-130350000D03*
D14*
X102799999Y-132750000D03*
X104497055Y-128652944D03*
X104497055Y-132047056D03*
X105199999Y-130350000D03*
D30*
X144000000Y-85400000D03*
X144000000Y-86800000D03*
X144700000Y-84700000D03*
X144700000Y-86100000D03*
X144700000Y-87500000D03*
X145375000Y-85400000D03*
X145375000Y-86800000D03*
X146100000Y-84700000D03*
X146100000Y-86100000D03*
X146100000Y-87500000D03*
X146800000Y-85400000D03*
X146800000Y-86800000D03*
D14*
X175399999Y-75350000D03*
X176102943Y-73652944D03*
X176102943Y-77047056D03*
X177799999Y-72950000D03*
D15*
X177799999Y-75350000D03*
D14*
X177799999Y-77750000D03*
X179497055Y-73652944D03*
X179497055Y-77047056D03*
X180199999Y-75350000D03*
D21*
X182499999Y-89849999D03*
D22*
X182500000Y-84850000D03*
D12*
X152459999Y-114499999D03*
D13*
X154999999Y-114499999D03*
D31*
X155269999Y-102709999D03*
D32*
X153999999Y-102709999D03*
X152729999Y-102709999D03*
D33*
X125819998Y-82949999D03*
X133779998Y-82949999D03*
X125819998Y-78449999D03*
X133779998Y-78449999D03*
X136319998Y-82949999D03*
X144279998Y-82949999D03*
X136319998Y-78449999D03*
X144279998Y-78449999D03*
D34*
X112000000Y-74500000D03*
D35*
X114540000Y-74500000D03*
X117080000Y-74500000D03*
D26*
X142849998Y-106149999D03*
D36*
X140309998Y-106149999D03*
X137769998Y-106149999D03*
X137769998Y-98529999D03*
X140309998Y-98529999D03*
X142849998Y-98529999D03*
D33*
X146799998Y-82949999D03*
X154759998Y-82949999D03*
X146799998Y-78449999D03*
X154759998Y-78449999D03*
D37*
X131800000Y-82950000D03*
X128200000Y-87200000D03*
X131000000Y-93900000D03*
D38*
X117900000Y-87725000D03*
X116825000Y-80875000D03*
X160500000Y-93500000D03*
X159400000Y-79300000D03*
X145800000Y-103075000D03*
X171800000Y-103700000D03*
X158200000Y-82200000D03*
X126700000Y-81400000D03*
X116150000Y-104737500D03*
X135937500Y-84199502D03*
X119299999Y-101100000D03*
X165300000Y-77800000D03*
X113550000Y-104637500D03*
D39*
X115250000Y-130500000D03*
D38*
X153350000Y-78350000D03*
X112084620Y-109540381D03*
D37*
X167900000Y-103700000D03*
X175199999Y-101050000D03*
X115200000Y-99600000D03*
X160299999Y-106100000D03*
D40*
X129100000Y-133400000D03*
D37*
X175199999Y-108550000D03*
X142900000Y-78400000D03*
D38*
X102700000Y-82200000D03*
D37*
X166800000Y-80100000D03*
D38*
X141200000Y-94800000D03*
D37*
X114000000Y-87200000D03*
X108203266Y-85815266D03*
X106500000Y-83700000D03*
X124400000Y-78400000D03*
X132400000Y-78400000D03*
D38*
X128299999Y-106350000D03*
D37*
X114900000Y-80900000D03*
X117690734Y-91709266D03*
X175199999Y-92450000D03*
X171800000Y-82600000D03*
D38*
X102700000Y-90900000D03*
X163450500Y-90000000D03*
D37*
X145800000Y-99300000D03*
D40*
X129200000Y-127000000D03*
D39*
X101700000Y-102200000D03*
D37*
X106600000Y-88200000D03*
D38*
X128425000Y-103225001D03*
X114871374Y-109427265D03*
D37*
X134100000Y-84099502D03*
D38*
X129400000Y-84000000D03*
X118600000Y-107000000D03*
D37*
X175299999Y-84850000D03*
D40*
X137000000Y-131000000D03*
D39*
X106300000Y-99200000D03*
D38*
X113899999Y-112850000D03*
X171900000Y-84200000D03*
D39*
X156200000Y-123925000D03*
D38*
X161049999Y-109600000D03*
D37*
X117800000Y-89100000D03*
X111700000Y-86300000D03*
X159900000Y-111900000D03*
X146200000Y-92500000D03*
X135400000Y-92500000D03*
X142900000Y-84000000D03*
X154000000Y-91700000D03*
X144050000Y-94250000D03*
X142700000Y-94800000D03*
X115850500Y-86400000D03*
X121000000Y-86400000D03*
X149050000Y-87450000D03*
X115850500Y-84700000D03*
X121800000Y-85000000D03*
X144350000Y-88650000D03*
D40*
X103000000Y-88900000D03*
D37*
X110243626Y-85699999D03*
D38*
X102886043Y-83286043D03*
D37*
X131500000Y-91300000D03*
X130177510Y-88966458D03*
X131600000Y-128800000D03*
X130300000Y-125900000D03*
D38*
X135980633Y-130587937D03*
D37*
X156250000Y-96200000D03*
X153800000Y-96200000D03*
D41*
X159900000Y-116249999D02*
X159799999Y-116350000D01*
X159900000Y-111900000D02*
X159900000Y-116249999D01*
D42*
X128200000Y-87200000D02*
X128200000Y-91100000D01*
X128200000Y-91100000D02*
X131000000Y-93900000D01*
X125819999Y-82950000D02*
X131800000Y-82950000D01*
X131800000Y-82950000D02*
X133779999Y-82950000D01*
X136319999Y-78450000D02*
X132450000Y-78450000D01*
X154759999Y-78450000D02*
X153450000Y-78450000D01*
X133779999Y-78450000D02*
X136319999Y-78450000D01*
X153450000Y-78450000D02*
X153350000Y-78350000D01*
X124450000Y-78450000D02*
X124400000Y-78400000D01*
X144279999Y-78450000D02*
X142950000Y-78450000D01*
X142950000Y-78450000D02*
X142900000Y-78400000D01*
X132450000Y-78450000D02*
X132400000Y-78400000D01*
X144279999Y-78450000D02*
X146799999Y-78450000D01*
X125819999Y-78450000D02*
X124450000Y-78450000D01*
D43*
X113500000Y-88100000D02*
X111700000Y-86300000D01*
X116800000Y-88100000D02*
X113500000Y-88100000D01*
X117800000Y-89100000D02*
X116800000Y-88100000D01*
X146200000Y-92500000D02*
X135400000Y-92500000D01*
D42*
X144279999Y-82950000D02*
X136319999Y-82950000D01*
X142900000Y-84000000D02*
X143950000Y-82950000D01*
X143950000Y-82950000D02*
X144279999Y-82950000D01*
X146799999Y-82950000D02*
X154759999Y-82950000D01*
X154000000Y-91700000D02*
X153900000Y-91600000D01*
X153900000Y-91600000D02*
X153900000Y-83809999D01*
X153900000Y-83809999D02*
X154759999Y-82950000D01*
D43*
X144100000Y-94300000D02*
X144100000Y-104899999D01*
X144050000Y-94250000D02*
X144100000Y-94300000D01*
X144100000Y-104899999D02*
X142849999Y-106150000D01*
X142849999Y-98530000D02*
X142849999Y-94949999D01*
X142849999Y-94949999D02*
X142700000Y-94800000D01*
X140100000Y-86400000D02*
X143400000Y-89700000D01*
X146800000Y-89700000D02*
X149050000Y-87450000D01*
X121000000Y-86400000D02*
X140100000Y-86400000D01*
X121000000Y-86400000D02*
X115850500Y-86400000D01*
X143400000Y-89700000D02*
X146800000Y-89700000D01*
X116150500Y-85000000D02*
X115850500Y-84700000D01*
X143650000Y-88650000D02*
X140000000Y-85000000D01*
X144350000Y-88650000D02*
X143650000Y-88650000D01*
X140000000Y-85000000D02*
X116150500Y-85000000D01*
X130177510Y-88966458D02*
X130177510Y-89977510D01*
X130177510Y-89977510D02*
X131500000Y-91300000D01*
D41*
X130300000Y-127500000D02*
X131600000Y-128800000D01*
X130300000Y-125900000D02*
X130300000Y-127500000D01*
X135997849Y-130587937D02*
X137000000Y-129585786D01*
X137000000Y-129585786D02*
X137000000Y-120140000D01*
X135980633Y-130587937D02*
X135997849Y-130587937D01*
X137000000Y-120140000D02*
X137040000Y-120100000D01*
D43*
X156250000Y-96200000D02*
X153800000Y-96200000D01*
M02*
