M48
; DRILL file {KiCad (7.0.0)} date Mon Mar 27 00:55:12 2023
; FORMAT={-:-/ absolute / inch / decimal}
; #@! TF.CreationDate,2023-03-27T00:55:12+02:00
; #@! TF.GenerationSoftware,Kicad,Pcbnew,(7.0.0)
; #@! TF.FileFunction,Plated,1,4,PTH
FMAT,2
INCH
; #@! TA.AperFunction,Plated,PTH,ViaDrill
T1C0.0118
; #@! TA.AperFunction,Plated,PTH,ComponentDrill
T2C0.0118
; #@! TA.AperFunction,Plated,PTH,ViaDrill
T3C0.0157
; #@! TA.AperFunction,Plated,PTH,ViaDrill
T4C0.0197
; #@! TA.AperFunction,Plated,PTH,ComponentDrill
T5C0.0197
; #@! TA.AperFunction,Plated,PTH,ComponentDrill
T6C0.0236
; #@! TA.AperFunction,Plated,PTH,ComponentDrill
T7C0.0295
; #@! TA.AperFunction,Plated,PTH,ComponentDrill
T8C0.0315
; #@! TA.AperFunction,Plated,PTH,ComponentDrill
T9C0.0335
; #@! TA.AperFunction,Plated,PTH,ComponentDrill
T10C0.0354
; #@! TA.AperFunction,Plated,PTH,ViaDrill
T11C0.0394
; #@! TA.AperFunction,Plated,PTH,ComponentDrill
T12C0.0394
; #@! TA.AperFunction,Plated,PTH,ComponentDrill
T13C0.0472
; #@! TA.AperFunction,Plated,PTH,ComponentDrill
T14C0.0512
; #@! TA.AperFunction,Plated,PTH,ComponentDrill
T15C0.0701
; #@! TA.AperFunction,Plated,PTH,ComponentDrill
T16C0.1260
%
G90
G05
T1
X4.1929Y-3.2953
X4.1969Y-3.4724
X4.26Y-3.3786
X4.3403Y-3.374
X4.3976Y-3.3976
X4.4882Y-3.4331
X4.5236Y-3.185
X4.5354Y-3.9213
X4.561Y-3.3346
X4.561Y-3.4016
X4.6335Y-3.6106
X4.6378Y-3.5079
X4.7638Y-3.4016
X4.7953Y-3.3465
X4.8976Y-3.0866
X5.0472Y-3.4331
X5.1251Y-3.5026
X5.1299Y-4.9567
X5.1575Y-3.6969
X5.1772Y-3.5945
X5.1811Y-5.0709
X5.189Y-3.2657
X5.2126Y-3.0866
X5.2795Y-3.311
X5.3307Y-3.6417
X5.6181Y-3.7323
X5.626Y-3.0866
X5.626Y-3.3071
X5.6713Y-3.7106
X5.6831Y-3.4902
X5.7402Y-3.9094
X5.7559Y-3.6417
X5.8681Y-3.4429
X6.0551Y-3.7874
X6.063Y-3.6102
X6.1516Y-3.7874
X6.2953Y-4.4055
X6.311Y-4.1772
X6.5669Y-3.1535
X6.6102Y-4.0827
X6.7638Y-3.252
X6.8976Y-3.6398
X6.8976Y-3.9783
X6.8976Y-4.2736
X6.9016Y-3.3406
T2
X5.6693Y-3.3622
X5.6693Y-3.4173
X5.6969Y-3.3346
X5.6969Y-3.3898
X5.6969Y-3.4449
X5.7234Y-3.3622
X5.7234Y-3.4173
X5.752Y-3.3346
X5.752Y-3.3898
X5.752Y-3.4449
X5.7795Y-3.3622
X5.7795Y-3.4173
T3
X4.0433Y-3.2362
X4.0433Y-3.5787
X4.0506Y-3.279
X4.4128Y-4.3126
X4.4705Y-4.1196
X4.4843Y-4.4429
X4.5225Y-4.3082
X4.5728Y-4.1235
X4.5994Y-3.1841
X4.6417Y-3.4537
X4.6693Y-4.2126
X4.6969Y-3.9803
X4.9882Y-3.2047
X5.0512Y-4.187
X5.0561Y-4.064
X5.0945Y-3.3071
X5.3519Y-3.3149
X5.3536Y-5.1413
X5.5591Y-3.7323
X5.7402Y-4.0581
X6.0374Y-3.0846
X6.2283Y-3.2362
X6.2756Y-3.122
X6.3189Y-3.6811
X6.3406Y-4.315
X6.4351Y-3.5433
X6.5079Y-3.063
X6.7638Y-4.0827
X6.7677Y-3.315
T4
X4.0551Y-3.5
X5.0827Y-5.252
X5.0866Y-5.0
X5.3937Y-5.1575
T5
X3.9528Y-2.9665
X3.9528Y-5.1319
X3.9804Y-2.8997
X3.9804Y-3.0333
X3.9804Y-5.0651
X3.9804Y-5.1987
X4.0472Y-2.872
X4.0472Y-3.061
X4.0472Y-5.0374
X4.0472Y-5.2264
X4.1141Y-2.8997
X4.1141Y-3.0333
X4.1141Y-5.0651
X4.1141Y-5.1987
X4.1417Y-2.9665
X4.1417Y-5.1319
X6.9055Y-2.9665
X6.9055Y-5.1319
X6.9332Y-2.8997
X6.9332Y-3.0333
X6.9332Y-5.0651
X6.9332Y-5.1987
X7.0Y-2.872
X7.0Y-3.061
X7.0Y-5.0374
X7.0Y-5.2264
X7.0668Y-2.8997
X7.0668Y-3.0333
X7.0668Y-5.0651
X7.0668Y-5.1987
X7.0945Y-2.9665
X7.0945Y-5.1319
T7
X6.013Y-4.0437
X6.063Y-4.0437
X6.113Y-4.0437
T8
X4.7835Y-4.8123
X4.7835Y-4.9107
X5.424Y-3.8791
X5.424Y-4.1791
X5.524Y-3.8791
X5.524Y-4.1791
X5.624Y-3.8791
X5.624Y-4.1791
T9
X3.8371Y-3.7303
X3.8371Y-3.9272
T10
X4.4094Y-2.9331
X4.5094Y-2.9331
X4.6094Y-2.9331
T11
X4.0039Y-4.0236
X4.185Y-3.9055
X4.5374Y-5.1378
X6.1496Y-4.8789
T12
X4.4085Y-3.0512
X4.5085Y-3.0512
X4.6085Y-3.0512
X5.2953Y-4.7283
X5.3953Y-4.7283
X6.0024Y-4.5079
X6.0039Y-4.3504
X6.1024Y-4.5079
X6.1039Y-4.3504
T13
X7.126Y-4.6594
X7.126Y-4.8563
T14
X3.8681Y-4.6752
X3.8681Y-4.872
X6.2913Y-4.5807
X6.2913Y-5.061
X6.5276Y-4.502
X6.7638Y-4.5807
X6.7638Y-5.061
X7.185Y-3.3406
X7.185Y-3.5374
X7.185Y-3.7736
X7.185Y-3.9705
X7.185Y-4.1673
X7.185Y-4.3642
T15
X4.2677Y-4.7776
X4.2677Y-5.1681
X4.4016Y-4.7776
X4.4016Y-5.1681
T16
X4.0472Y-2.9665
X4.0472Y-5.1319
X7.0Y-2.9665
X7.0Y-5.1319
T6
G00X3.717Y-3.6909
M15
G01X3.7446Y-3.6909
M16
G05
G00X3.7446Y-3.9665
M15
G01X3.717Y-3.9665
M16
G05
G00X3.7894Y-3.2157
M15
G01X3.7657Y-3.2157
M16
G05
G00X3.7894Y-3.5559
M15
G01X3.7657Y-3.5559
M16
G05
G00X3.9638Y-3.2157
M15
G01X3.9205Y-3.2157
M16
G05
G00X3.9638Y-3.5559
M15
G01X3.9205Y-3.5559
M16
G05
T12
G00X3.9764Y-4.234
M15
G01X3.9764Y-4.3127
M16
G05
G00X4.0551Y-4.4584
M15
G01X4.1339Y-4.4584
M16
G05
G00X4.2126Y-4.234
M15
G01X4.2126Y-4.3127
M16
G05
T0
M30
