G04 #@! TF.GenerationSoftware,KiCad,Pcbnew,(7.0.0)*
G04 #@! TF.CreationDate,2023-03-27T00:55:10+02:00*
G04 #@! TF.ProjectId,LuminX WLED,4c756d69-6e58-4205-974c-45442e6b6963,1.0*
G04 #@! TF.SameCoordinates,Original*
G04 #@! TF.FileFunction,Soldermask,Top*
G04 #@! TF.FilePolarity,Negative*
%FSLAX46Y46*%
G04 Gerber Fmt 4.6, Leading zero omitted, Abs format (unit mm)*
G04 Created by KiCad (PCBNEW (7.0.0)) date 2023-03-27 00:55:10*
%MOMM*%
%LPD*%
G01*
G04 APERTURE LIST*
G04 Aperture macros list*
%AMRoundRect*
0 Rectangle with rounded corners*
0 $1 Rounding radius*
0 $2 $3 $4 $5 $6 $7 $8 $9 X,Y pos of 4 corners*
0 Add a 4 corners polygon primitive as box body*
4,1,4,$2,$3,$4,$5,$6,$7,$8,$9,$2,$3,0*
0 Add four circle primitives for the rounded corners*
1,1,$1+$1,$2,$3*
1,1,$1+$1,$4,$5*
1,1,$1+$1,$6,$7*
1,1,$1+$1,$8,$9*
0 Add four rect primitives between the rounded corners*
20,1,$1+$1,$2,$3,$4,$5,0*
20,1,$1+$1,$4,$5,$6,$7,0*
20,1,$1+$1,$6,$7,$8,$9,0*
20,1,$1+$1,$8,$9,$2,$3,0*%
G04 Aperture macros list end*
%ADD10RoundRect,0.225000X0.250000X-0.225000X0.250000X0.225000X-0.250000X0.225000X-0.250000X-0.225000X0*%
%ADD11R,2.500000X2.500000*%
%ADD12O,2.500000X2.500000*%
%ADD13RoundRect,0.200000X0.275000X-0.200000X0.275000X0.200000X-0.275000X0.200000X-0.275000X-0.200000X0*%
%ADD14RoundRect,0.250000X1.000000X0.650000X-1.000000X0.650000X-1.000000X-0.650000X1.000000X-0.650000X0*%
%ADD15R,1.700000X1.700000*%
%ADD16O,1.700000X1.700000*%
%ADD17RoundRect,0.200000X0.200000X0.275000X-0.200000X0.275000X-0.200000X-0.275000X0.200000X-0.275000X0*%
%ADD18RoundRect,0.200000X-0.200000X-0.275000X0.200000X-0.275000X0.200000X0.275000X-0.200000X0.275000X0*%
%ADD19R,1.200000X1.400000*%
%ADD20RoundRect,0.200000X-0.275000X0.200000X-0.275000X-0.200000X0.275000X-0.200000X0.275000X0.200000X0*%
%ADD21RoundRect,0.150000X-0.825000X-0.150000X0.825000X-0.150000X0.825000X0.150000X-0.825000X0.150000X0*%
%ADD22C,0.800000*%
%ADD23C,6.400000*%
%ADD24RoundRect,0.150000X0.150000X0.625000X-0.150000X0.625000X-0.150000X-0.625000X0.150000X-0.625000X0*%
%ADD25RoundRect,0.250000X0.350000X0.650000X-0.350000X0.650000X-0.350000X-0.650000X0.350000X-0.650000X0*%
%ADD26RoundRect,0.225000X0.225000X0.250000X-0.225000X0.250000X-0.225000X-0.250000X0.225000X-0.250000X0*%
%ADD27R,2.400000X2.400000*%
%ADD28C,2.400000*%
%ADD29RoundRect,0.100000X-0.637500X-0.100000X0.637500X-0.100000X0.637500X0.100000X-0.637500X0.100000X0*%
%ADD30RoundRect,0.150000X-0.512500X-0.150000X0.512500X-0.150000X0.512500X0.150000X-0.512500X0.150000X0*%
%ADD31O,1.800000X2.400000*%
%ADD32RoundRect,0.190000X0.285000X0.685000X-0.285000X0.685000X-0.285000X-0.685000X0.285000X-0.685000X0*%
%ADD33C,0.650000*%
%ADD34R,1.450000X0.600000*%
%ADD35R,1.450000X0.300000*%
%ADD36O,2.100000X1.000000*%
%ADD37O,1.600000X1.000000*%
%ADD38C,2.780000*%
%ADD39RoundRect,0.225000X-0.225000X-0.250000X0.225000X-0.250000X0.225000X0.250000X-0.225000X0.250000X0*%
%ADD40RoundRect,0.150000X0.587500X0.150000X-0.587500X0.150000X-0.587500X-0.150000X0.587500X-0.150000X0*%
%ADD41RoundRect,0.112500X0.112500X-0.187500X0.112500X0.187500X-0.112500X0.187500X-0.112500X-0.187500X0*%
%ADD42RoundRect,0.150000X-0.587500X-0.150000X0.587500X-0.150000X0.587500X0.150000X-0.587500X0.150000X0*%
%ADD43R,2.600000X2.600000*%
%ADD44C,2.600000*%
%ADD45R,0.500000X0.375000*%
%ADD46R,0.650000X0.300000*%
%ADD47R,3.500000X3.500000*%
%ADD48RoundRect,0.750000X-0.750000X-1.000000X0.750000X-1.000000X0.750000X1.000000X-0.750000X1.000000X0*%
%ADD49RoundRect,0.875000X-0.875000X-0.875000X0.875000X-0.875000X0.875000X0.875000X-0.875000X0.875000X0*%
%ADD50RoundRect,0.243750X0.243750X0.456250X-0.243750X0.456250X-0.243750X-0.456250X0.243750X-0.456250X0*%
%ADD51RoundRect,0.250000X-0.650000X0.325000X-0.650000X-0.325000X0.650000X-0.325000X0.650000X0.325000X0*%
%ADD52R,2.200000X7.500000*%
%ADD53RoundRect,0.250000X0.650000X-0.325000X0.650000X0.325000X-0.650000X0.325000X-0.650000X-0.325000X0*%
%ADD54R,1.600000X1.600000*%
%ADD55C,1.600000*%
%ADD56RoundRect,0.218750X0.256250X-0.218750X0.256250X0.218750X-0.256250X0.218750X-0.256250X-0.218750X0*%
%ADD57R,1.350000X0.400000*%
%ADD58O,1.900000X1.200000*%
%ADD59R,1.900000X1.200000*%
%ADD60C,1.450000*%
%ADD61R,1.900000X1.500000*%
%ADD62R,1.500000X0.900000*%
%ADD63R,0.900000X1.500000*%
%ADD64C,0.600000*%
%ADD65R,3.800000X3.800000*%
%ADD66RoundRect,0.112500X-0.112500X0.187500X-0.112500X-0.187500X0.112500X-0.187500X0.112500X0.187500X0*%
%ADD67RoundRect,0.250000X-0.850000X-0.350000X0.850000X-0.350000X0.850000X0.350000X-0.850000X0.350000X0*%
%ADD68RoundRect,0.249997X-2.950003X-2.650003X2.950003X-2.650003X2.950003X2.650003X-2.950003X2.650003X0*%
%ADD69RoundRect,0.150000X0.150000X-0.512500X0.150000X0.512500X-0.150000X0.512500X-0.150000X-0.512500X0*%
%ADD70RoundRect,0.250000X0.250000X0.475000X-0.250000X0.475000X-0.250000X-0.475000X0.250000X-0.475000X0*%
%ADD71RoundRect,0.225000X-0.250000X0.225000X-0.250000X-0.225000X0.250000X-0.225000X0.250000X0.225000X0*%
%ADD72RoundRect,0.250000X-0.312500X-0.625000X0.312500X-0.625000X0.312500X0.625000X-0.312500X0.625000X0*%
%ADD73R,1.050000X1.500000*%
%ADD74O,1.050000X1.500000*%
%ADD75RoundRect,0.250200X-0.649800X-0.649800X0.649800X-0.649800X0.649800X0.649800X-0.649800X0.649800X0*%
%ADD76C,1.800000*%
%ADD77O,1.600000X1.600000*%
G04 APERTURE END LIST*
D10*
X143500000Y-130425000D03*
X143500000Y-128875000D03*
D11*
X165799998Y-114349999D03*
D12*
X159799998Y-116349999D03*
X159799998Y-128549999D03*
X171799998Y-128549999D03*
X171799998Y-116349999D03*
D13*
X149500000Y-133975000D03*
X149500000Y-132325000D03*
D14*
X106225000Y-95592500D03*
X102225000Y-95592500D03*
D15*
X111974999Y-77499999D03*
D16*
X114514999Y-77499999D03*
X117054999Y-77499999D03*
D17*
X159575000Y-93500000D03*
X157925000Y-93500000D03*
D18*
X120474999Y-104600000D03*
X122124999Y-104600000D03*
D19*
X115074999Y-93874999D03*
X115074999Y-96074999D03*
X116774999Y-96074999D03*
X116774999Y-93874999D03*
D20*
X129500000Y-90375000D03*
X129500000Y-92025000D03*
D21*
X119425000Y-83915000D03*
X119425000Y-85185000D03*
X119425000Y-86455000D03*
X119425000Y-87725000D03*
X119425000Y-88995000D03*
X119425000Y-90265000D03*
X119425000Y-91535000D03*
X119425000Y-92805000D03*
X124375000Y-92805000D03*
X124375000Y-91535000D03*
X124375000Y-90265000D03*
X124375000Y-88995000D03*
X124375000Y-87725000D03*
X124375000Y-86455000D03*
X124375000Y-85185000D03*
X124375000Y-83915000D03*
D17*
X116750000Y-84695000D03*
X115100000Y-84695000D03*
D22*
X175399999Y-130350000D03*
X176102943Y-128652944D03*
X176102943Y-132047056D03*
X177799999Y-127950000D03*
D23*
X177799999Y-130350000D03*
D22*
X177799999Y-132750000D03*
X179497055Y-128652944D03*
X179497055Y-132047056D03*
X180199999Y-130350000D03*
D24*
X166300000Y-79075000D03*
X165300000Y-79075000D03*
X164300000Y-79075000D03*
X163300000Y-79075000D03*
D25*
X167600000Y-81600000D03*
X162000000Y-81600000D03*
D20*
X158200000Y-83175000D03*
X158200000Y-84825000D03*
D26*
X116525000Y-72250000D03*
X114975000Y-72250000D03*
D15*
X134499999Y-120099999D03*
D16*
X137039999Y-120099999D03*
D27*
X180999999Y-118349999D03*
D28*
X181000000Y-123350000D03*
D29*
X161925000Y-84120000D03*
X161925000Y-84770000D03*
X161925000Y-85420000D03*
X161925000Y-86070000D03*
X161925000Y-86720000D03*
X161925000Y-87370000D03*
X161925000Y-88020000D03*
X161925000Y-88670000D03*
X161925000Y-89320000D03*
X161925000Y-89970000D03*
X167650000Y-89970000D03*
X167650000Y-89320000D03*
X167650000Y-88670000D03*
X167650000Y-88020000D03*
X167650000Y-87370000D03*
X167650000Y-86720000D03*
X167650000Y-86070000D03*
X167650000Y-85420000D03*
X167650000Y-84770000D03*
X167650000Y-84120000D03*
D30*
X168700000Y-105500000D03*
X168700000Y-106450000D03*
X168700000Y-107400000D03*
X170975000Y-107400000D03*
X170975000Y-105500000D03*
D31*
X125499998Y-97599999D03*
D32*
X127049999Y-97600000D03*
X123949999Y-97600000D03*
D33*
X99600000Y-83110000D03*
X99600000Y-88890000D03*
D34*
X101044999Y-82749999D03*
X101044999Y-83549999D03*
D35*
X101044999Y-84749999D03*
X101044999Y-85749999D03*
X101044999Y-86249999D03*
X101044999Y-87249999D03*
D34*
X101044999Y-88449999D03*
X101044999Y-89249999D03*
X101044999Y-89249999D03*
X101044999Y-88449999D03*
D35*
X101044999Y-87749999D03*
X101044999Y-86749999D03*
X101044999Y-85249999D03*
X101044999Y-84249999D03*
D34*
X101044999Y-83549999D03*
X101044999Y-82749999D03*
D36*
X100129999Y-81679999D03*
D37*
X95949999Y-81679999D03*
D36*
X100129999Y-90319999D03*
D37*
X95949999Y-90319999D03*
D38*
X111799999Y-121350000D03*
X108399999Y-121350000D03*
X111799999Y-131270000D03*
X108399999Y-131270000D03*
D39*
X153225000Y-100710000D03*
X154775000Y-100710000D03*
D21*
X134100000Y-128895000D03*
X134100000Y-130165000D03*
X134100000Y-131435000D03*
X134100000Y-132705000D03*
X139050000Y-132705000D03*
X139050000Y-131435000D03*
X139050000Y-130165000D03*
X139050000Y-128895000D03*
D40*
X160375000Y-107050000D03*
X160375000Y-105150000D03*
X158500000Y-106100000D03*
D41*
X175250000Y-109450000D03*
X175250000Y-107350000D03*
D42*
X131617500Y-90245000D03*
X131617500Y-92145000D03*
X133492500Y-91195000D03*
D17*
X159575000Y-95500000D03*
X157925000Y-95500000D03*
D26*
X131775000Y-133400000D03*
X130225000Y-133400000D03*
X116725000Y-88195000D03*
X115175000Y-88195000D03*
D39*
X126725000Y-83945000D03*
X128275000Y-83945000D03*
D18*
X120474999Y-101100000D03*
X122124999Y-101100000D03*
D22*
X100399999Y-75350000D03*
X101102943Y-73652944D03*
X101102943Y-77047056D03*
X102799999Y-72950000D03*
D23*
X102799999Y-75350000D03*
D22*
X102799999Y-77750000D03*
X104497055Y-73652944D03*
X104497055Y-77047056D03*
X105199999Y-75350000D03*
D14*
X108650000Y-90262500D03*
X104650000Y-90262500D03*
D31*
X125499998Y-108099999D03*
D32*
X127049999Y-108100000D03*
X123949999Y-108100000D03*
D43*
X182499999Y-110849999D03*
D44*
X182500000Y-105850000D03*
X182500000Y-100850000D03*
X182500000Y-95850000D03*
D45*
X109149999Y-85162499D03*
D46*
X109074999Y-85699999D03*
D45*
X109149999Y-86237499D03*
X110849999Y-86237499D03*
D46*
X110924999Y-85699999D03*
D45*
X110849999Y-85162499D03*
D47*
X106999999Y-108542499D03*
D48*
X101000000Y-108542500D03*
D49*
X104000000Y-113242500D03*
D50*
X135937500Y-81800000D03*
X134062500Y-81800000D03*
D51*
X150750000Y-123900000D03*
X150750000Y-126850000D03*
D15*
X152499999Y-110499999D03*
D16*
X155039999Y-110499999D03*
D14*
X138425000Y-125650000D03*
X134425000Y-125650000D03*
D52*
X141999999Y-123399999D03*
X147999999Y-123399999D03*
D20*
X146500000Y-128825000D03*
X146500000Y-130475000D03*
D53*
X131225000Y-130125000D03*
X131225000Y-127175000D03*
D20*
X158200000Y-79275000D03*
X158200000Y-80925000D03*
D43*
X98249999Y-118749999D03*
D44*
X98250000Y-123750000D03*
D17*
X159575000Y-91500000D03*
X157925000Y-91500000D03*
D31*
X125499998Y-101099999D03*
D32*
X127049999Y-101100000D03*
X123949999Y-101100000D03*
D18*
X153175000Y-98900000D03*
X154825000Y-98900000D03*
X103975000Y-84600000D03*
X105625000Y-84600000D03*
D42*
X131617500Y-86545000D03*
X131617500Y-88445000D03*
X133492500Y-87495000D03*
D54*
X121499998Y-124732379D03*
D55*
X121499999Y-122232380D03*
D56*
X113900000Y-111775000D03*
X113900000Y-110200000D03*
D57*
X97462499Y-95949999D03*
X97462499Y-96599999D03*
X97462499Y-97249999D03*
X97462499Y-97899999D03*
X97462499Y-98549999D03*
D58*
X94762499Y-93749999D03*
D59*
X94762499Y-94349999D03*
D60*
X97462500Y-94750000D03*
D61*
X94762499Y-96249999D03*
X94762499Y-98249999D03*
D60*
X97462500Y-99750000D03*
D59*
X94762499Y-100149999D03*
D58*
X94762499Y-100749999D03*
D14*
X163049999Y-109600000D03*
X159049999Y-109600000D03*
D18*
X120474999Y-97600000D03*
X122124999Y-97600000D03*
D17*
X116750000Y-86395000D03*
X115100000Y-86395000D03*
D41*
X175250000Y-93300000D03*
X175250000Y-91200000D03*
D17*
X163872500Y-106850000D03*
X162222500Y-106850000D03*
D26*
X170525000Y-103750000D03*
X168975000Y-103750000D03*
D22*
X100399999Y-130350000D03*
X101102943Y-128652944D03*
X101102943Y-132047056D03*
X102799999Y-127950000D03*
D23*
X102799999Y-130350000D03*
D22*
X102799999Y-132750000D03*
X104497055Y-128652944D03*
X104497055Y-132047056D03*
X105199999Y-130350000D03*
D62*
X138149999Y-78379999D03*
X138149999Y-79649999D03*
X138149999Y-80919999D03*
X138149999Y-82189999D03*
X138149999Y-83459999D03*
X138149999Y-84729999D03*
X138149999Y-85999999D03*
X138149999Y-87269999D03*
X138149999Y-88539999D03*
X138149999Y-89809999D03*
X138149999Y-91079999D03*
X138149999Y-92349999D03*
X138149999Y-93619999D03*
X138149999Y-94889999D03*
D63*
X141189999Y-96139999D03*
X142459999Y-96139999D03*
X143729999Y-96139999D03*
X144999999Y-96139999D03*
X146269999Y-96139999D03*
X147539999Y-96139999D03*
X148809999Y-96139999D03*
X150079999Y-96139999D03*
X151349999Y-96139999D03*
X152619999Y-96139999D03*
D62*
X155649999Y-94889999D03*
X155649999Y-93619999D03*
X155649999Y-92349999D03*
X155649999Y-91079999D03*
X155649999Y-89809999D03*
X155649999Y-88539999D03*
X155649999Y-87269999D03*
X155649999Y-85999999D03*
X155649999Y-84729999D03*
X155649999Y-83459999D03*
X155649999Y-82189999D03*
X155649999Y-80919999D03*
X155649999Y-79649999D03*
X155649999Y-78379999D03*
D64*
X144000000Y-85400000D03*
X144000000Y-86800000D03*
X144700000Y-84700000D03*
X144700000Y-86100000D03*
X144700000Y-87500000D03*
X145375000Y-85400000D03*
X145375000Y-86800000D03*
D65*
X145399999Y-86099999D03*
D64*
X146100000Y-84700000D03*
X146100000Y-86100000D03*
X146100000Y-87500000D03*
X146800000Y-85400000D03*
X146800000Y-86800000D03*
D10*
X145800000Y-101950000D03*
X145800000Y-100400000D03*
X141650000Y-130400000D03*
X141650000Y-128850000D03*
D17*
X144575000Y-132150000D03*
X142925000Y-132150000D03*
D22*
X175399999Y-75350000D03*
X176102943Y-73652944D03*
X176102943Y-77047056D03*
X177799999Y-72950000D03*
D23*
X177799999Y-75350000D03*
D22*
X177799999Y-77750000D03*
X179497055Y-73652944D03*
X179497055Y-77047056D03*
X180199999Y-75350000D03*
D26*
X135875000Y-79600000D03*
X134325000Y-79600000D03*
D18*
X103975000Y-87500000D03*
X105625000Y-87500000D03*
X120474999Y-108100000D03*
X122124999Y-108100000D03*
D10*
X170700000Y-84175000D03*
X170700000Y-82625000D03*
D66*
X175250000Y-83950000D03*
X175250000Y-86050000D03*
D17*
X133825000Y-93900000D03*
X132175000Y-93900000D03*
D13*
X129500000Y-88150000D03*
X129500000Y-86500000D03*
D41*
X101725000Y-100442500D03*
X101725000Y-98342500D03*
D39*
X115150000Y-91725000D03*
X116700000Y-91725000D03*
D51*
X153650000Y-123900000D03*
X153650000Y-126850000D03*
D39*
X130250000Y-124900000D03*
X131800000Y-124900000D03*
D43*
X182499999Y-89849999D03*
D44*
X182500000Y-84850000D03*
D20*
X146500000Y-132325000D03*
X146500000Y-133975000D03*
D31*
X125499999Y-104599999D03*
D32*
X127050000Y-104600000D03*
X123950000Y-104600000D03*
D66*
X175250000Y-100200000D03*
X175250000Y-102300000D03*
D67*
X115259999Y-128570000D03*
D68*
X121559999Y-130850000D03*
D67*
X115259999Y-133130000D03*
D10*
X117500000Y-108575000D03*
X117500000Y-107025000D03*
D26*
X116725000Y-98475000D03*
X115175000Y-98475000D03*
D69*
X113950000Y-108337500D03*
X114900000Y-108337500D03*
X115850000Y-108337500D03*
X115850000Y-106062500D03*
X113950000Y-106062500D03*
D15*
X152459999Y-114499999D03*
D16*
X154999999Y-114499999D03*
D70*
X116825000Y-82475000D03*
X114925000Y-82475000D03*
D71*
X112100000Y-107050000D03*
X112100000Y-108600000D03*
D72*
X168537500Y-110000000D03*
X171462500Y-110000000D03*
D73*
X155269999Y-102709999D03*
D74*
X153999999Y-102709999D03*
X152729999Y-102709999D03*
D75*
X112000000Y-74500000D03*
D76*
X114540000Y-74500000D03*
X117080000Y-74500000D03*
D54*
X142849998Y-106149999D03*
D77*
X140309998Y-106149999D03*
X137769998Y-106149999D03*
X137769998Y-98529999D03*
X140309998Y-98529999D03*
X142849998Y-98529999D03*
M02*
